<?xml version="1.0" encoding="UTF-8"?>
<!DOCTYPE svg PUBLIC "-//W3C//DTD SVG 1.1//EN" "http://www.w3.org/Graphics/SVG/1.1/DTD/svg11.dtd">
<svg xmlns="http://www.w3.org/2000/svg" version="1.1" width="403px" height="86px" style="shape-rendering:geometricPrecision; text-rendering:geometricPrecision; image-rendering:optimizeQuality; fill-rule:evenodd; clip-rule:evenodd" xmlns:xlink="http://www.w3.org/1999/xlink">
<g><path style="opacity:1" fill="#fffefd" d="M -0.5,-0.5 C 133.833,-0.5 268.167,-0.5 402.5,-0.5C 402.5,28.1667 402.5,56.8333 402.5,85.5C 268.167,85.5 133.833,85.5 -0.5,85.5C -0.5,56.8333 -0.5,28.1667 -0.5,-0.5 Z"/></g>
<g><path style="opacity:1" fill="#fea21c" d="M 374.5,12.5 C 376.833,12.5 379.167,12.5 381.5,12.5C 381.5,29.5 381.5,46.5 381.5,63.5C 379.167,63.5 376.833,63.5 374.5,63.5C 374.649,62.448 374.483,61.448 374,60.5C 365.567,66.5364 358.234,65.5364 352,57.5C 347.245,42.7901 352.412,35.2901 367.5,35C 370.034,35.5163 372.2,36.683 374,38.5C 374.5,29.8397 374.666,21.1731 374.5,12.5 Z"/></g>
<g><path style="opacity:1" fill="#ffe3bb" d="M 260.5,15.5 C 259.504,31.3246 259.17,47.3246 259.5,63.5C 258.173,47.3285 258.173,30.9951 259.5,14.5C 260.107,14.6236 260.44,14.9569 260.5,15.5 Z"/></g>
<g><path style="opacity:1" fill="#feb84f" d="M 306.5,63.5 C 306.83,47.6578 306.496,31.9911 305.5,16.5C 305.783,15.7109 306.283,15.0442 307,14.5C 307.828,31.0052 307.662,47.3385 306.5,63.5 Z"/></g>
<g><path style="opacity:1" fill="#fea118" d="M 8.5,15.5 C 19.1667,15.5 29.8333,15.5 40.5,15.5C 40.5,17.8333 40.5,20.1667 40.5,22.5C 36.1667,22.5 31.8333,22.5 27.5,22.5C 27.5,36.1667 27.5,49.8333 27.5,63.5C 25.1667,63.5 22.8333,63.5 20.5,63.5C 20.5,49.8333 20.5,36.1667 20.5,22.5C 16.5,22.5 12.5,22.5 8.5,22.5C 8.5,20.1667 8.5,17.8333 8.5,15.5 Z"/></g>
<g><path style="opacity:1" fill="#feae38" d="M 80.5,22.5 C 80.5,20.5 80.5,18.5 80.5,16.5C 70.5,16.5 60.5,16.5 50.5,16.5C 50.5,32.1667 50.5,47.8333 50.5,63.5C 49.5036,47.6754 49.1703,31.6754 49.5,15.5C 60.1667,15.5 70.8333,15.5 81.5,15.5C 81.8016,18.0593 81.4682,20.3926 80.5,22.5 Z"/></g>
<g><path style="opacity:1" fill="#fe9e0f" d="M 80.5,22.5 C 72.5,22.5 64.5,22.5 56.5,22.5C 56.5,27.1667 56.5,31.8333 56.5,36.5C 63.8333,36.5 71.1667,36.5 78.5,36.5C 78.5,38.5 78.5,40.5 78.5,42.5C 71.1667,42.5 63.8333,42.5 56.5,42.5C 56.5,47.1667 56.5,51.8333 56.5,56.5C 64.6499,57.4927 72.9832,57.8261 81.5,57.5C 81.5,59.5 81.5,61.5 81.5,63.5C 71.1667,63.5 60.8333,63.5 50.5,63.5C 50.5,47.8333 50.5,32.1667 50.5,16.5C 60.5,16.5 70.5,16.5 80.5,16.5C 80.5,18.5 80.5,20.5 80.5,22.5 Z"/></g>
<g><path style="opacity:1" fill="#fea016" d="M 260.5,15.5 C 268.169,26.0101 275.669,36.6768 283,47.5C 290.521,37.0994 298.021,26.766 305.5,16.5C 306.496,31.9911 306.83,47.6578 306.5,63.5C 304.5,63.5 302.5,63.5 300.5,63.5C 300.666,53.8276 300.5,44.1609 300,34.5C 299.283,35.0442 298.783,35.7109 298.5,36.5C 293.553,43.9538 288.386,51.2872 283,58.5C 277.614,51.2872 272.447,43.9538 267.5,36.5C 267.44,35.9569 267.107,35.6236 266.5,35.5C 265.502,44.8096 265.168,54.1429 265.5,63.5C 263.5,63.5 261.5,63.5 259.5,63.5C 259.17,47.3246 259.504,31.3246 260.5,15.5 Z"/></g>
<g><path style="opacity:1" fill="#fea21b" d="M 141.5,35.5 C 143.308,36.9179 143.975,38.9179 143.5,41.5C 138.977,41.345 135.811,43.345 134,47.5C 133.501,52.8229 133.334,58.1563 133.5,63.5C 131.167,63.5 128.833,63.5 126.5,63.5C 126.5,54.1667 126.5,44.8333 126.5,35.5C 128.5,35.5 130.5,35.5 132.5,35.5C 132.338,37.5273 132.505,39.5273 133,41.5C 135.177,38.4769 138.011,36.4769 141.5,35.5 Z"/></g>
<g><path style="opacity:1" fill="#ffd69a" d="M 141.5,35.5 C 142.209,34.596 143.209,34.2627 144.5,34.5C 144.802,37.0593 144.468,39.3926 143.5,41.5C 143.975,38.9179 143.308,36.9179 141.5,35.5 Z"/></g>
<g><path style="opacity:1" fill="#fea21d" d="M 158.5,34.5 C 175.342,34.8286 180.842,42.8286 175,58.5C 166.647,66.4094 158.314,66.4094 150,58.5C 144.398,47.3424 147.231,39.3424 158.5,34.5 Z"/></g>
<g><path style="opacity:1" fill="#fea018" d="M 193.5,61.5 C 193.44,60.9569 193.107,60.6236 192.5,60.5C 191.505,65.7921 191.172,71.1254 191.5,76.5C 189.5,76.5 187.5,76.5 185.5,76.5C 185.5,62.8333 185.5,49.1667 185.5,35.5C 187.5,35.5 189.5,35.5 191.5,35.5C 191.343,36.8734 191.51,38.2068 192,39.5C 200.291,32.3491 207.958,33.0158 215,41.5C 219.216,54.4124 214.716,62.079 201.5,64.5C 198.609,64.0525 195.942,63.0525 193.5,61.5 Z"/></g>
<g><path style="opacity:1" fill="#fea320" d="M 233.5,34.5 C 243.477,33.4922 249.477,37.8255 251.5,47.5C 245.428,49.0234 239.428,50.8568 233.5,53C 232.09,53.3678 231.09,54.2011 230.5,55.5C 234.544,59.1052 238.877,59.4385 243.5,56.5C 245.638,58.0326 246.305,59.8659 245.5,62C 235.274,66.7963 227.441,64.2963 222,54.5C 220.428,44.6372 224.261,37.9705 233.5,34.5 Z"/></g>
<g><path style="opacity:1" fill="#ffe3bc" d="M 300.5,63.5 C 299.833,54.5 299.167,45.5 298.5,36.5C 298.783,35.7109 299.283,35.0442 300,34.5C 300.5,44.1609 300.666,53.8276 300.5,63.5 Z"/></g>
<g><path style="opacity:1" fill="#fea21e" d="M 327.5,34.5 C 337.516,33.5412 343.516,37.8746 345.5,47.5C 338.312,49.5068 331.312,52.0068 324.5,55C 328.399,58.982 332.733,59.482 337.5,56.5C 339.361,57.5283 340.695,59.0283 341.5,61C 330.963,67.1476 322.796,64.981 317,54.5C 315.003,44.8243 318.503,38.1577 327.5,34.5 Z"/></g>
<g><path style="opacity:1" fill="#fea21e" d="M 90.5,35.5 C 92.8333,35.5 95.1667,35.5 97.5,35.5C 97.3337,42.5079 97.5004,49.5079 98,56.5C 102.767,59.7575 106.434,58.7575 109,53.5C 109.499,47.5092 109.666,41.5092 109.5,35.5C 111.833,35.5 114.167,35.5 116.5,35.5C 116.5,44.8333 116.5,54.1667 116.5,63.5C 114.5,63.5 112.5,63.5 110.5,63.5C 110.657,62.1266 110.49,60.7932 110,59.5C 104.475,65.1915 98.4754,65.8582 92,61.5C 90.5592,52.9422 90.0592,44.2756 90.5,35.5 Z"/></g>
<g><path style="opacity:1" fill="#fec774" d="M 267.5,36.5 C 266.833,45.5 266.167,54.5 265.5,63.5C 265.168,54.1429 265.502,44.8096 266.5,35.5C 267.107,35.6236 267.44,35.9569 267.5,36.5 Z"/></g>
<g><path style="opacity:1" fill="#fffcf8" d="M 159.5,40.5 C 169.353,40.5102 172.853,45.1769 170,54.5C 164.514,60.0804 159.514,59.747 155,53.5C 153.379,47.9227 154.879,43.5894 159.5,40.5 Z"/></g>
<g><path style="opacity:1" fill="#fffcf7" d="M 197.5,40.5 C 206.871,40.0341 210.705,44.3675 209,53.5C 206.103,58.1549 201.937,59.6549 196.5,58C 189.62,51.7719 189.954,45.9385 197.5,40.5 Z"/></g>
<g><path style="opacity:1" fill="#fffaf3" d="M 232.5,40.5 C 237.158,39.5142 240.824,40.8476 243.5,44.5C 238.717,46.6419 233.884,48.6419 229,50.5C 228.333,48.5 228.333,46.5 229,44.5C 230.376,43.2949 231.542,41.9616 232.5,40.5 Z"/></g>
<g><path style="opacity:1" fill="#fff9f2" d="M 327.5,40.5 C 330.93,40.1065 334.096,40.7732 337,42.5C 337.483,43.448 337.649,44.448 337.5,45.5C 332.717,46.7617 328.05,48.4283 323.5,50.5C 322.591,46.3125 323.924,42.9792 327.5,40.5 Z"/></g>
<g><path style="opacity:1" fill="#fffdfa" d="M 361.5,40.5 C 374.637,40.1293 377.971,45.6293 371.5,57C 360.519,60.0708 356.019,55.9041 358,44.5C 359.376,43.2949 360.542,41.9616 361.5,40.5 Z"/></g>
<g><path style="opacity:1" fill="#fec165" d="M 56.5,56.5 C 65.1667,56.5 73.8333,56.5 82.5,56.5C 82.8016,59.0593 82.4682,61.3926 81.5,63.5C 81.5,61.5 81.5,59.5 81.5,57.5C 72.9832,57.8261 64.6499,57.4927 56.5,56.5 Z"/></g>
<g><path style="opacity:1" fill="#ffd89f" d="M 193.5,61.5 C 192.833,66.5 192.167,71.5 191.5,76.5C 191.172,71.1254 191.505,65.7921 192.5,60.5C 193.107,60.6236 193.44,60.9569 193.5,61.5 Z"/></g>
</svg>
