<?xml version="1.0" encoding="UTF-8"?>
<!DOCTYPE svg PUBLIC "-//W3C//DTD SVG 1.1//EN" "http://www.w3.org/Graphics/SVG/1.1/DTD/svg11.dtd">
<svg xmlns="http://www.w3.org/2000/svg" version="1.1" width="403px" height="86px" style="shape-rendering:geometricPrecision; text-rendering:geometricPrecision; image-rendering:optimizeQuality; fill-rule:evenodd; clip-rule:evenodd" xmlns:xlink="http://www.w3.org/1999/xlink">
<g><path style="opacity:1" fill="#feba54" d="M 375.5,12.5 C 375.5,21.1667 375.5,29.8333 375.5,38.5C 373.821,38.7148 372.821,38.0481 372.5,36.5C 373.117,36.6107 373.617,36.944 374,37.5C 374.171,28.9899 374.671,20.6566 375.5,12.5 Z"/></g>
<g><path style="opacity:1" fill="#ffa730" d="M 375.5,12.5 C 377.833,12.5 380.167,12.5 382.5,12.5C 382.5,29.5 382.5,46.5 382.5,63.5C 379.833,63.5 377.167,63.5 374.5,63.5C 374.649,62.448 374.483,61.448 374,60.5C 368.204,65.1357 362.038,65.6357 355.5,62C 347.5,53.6667 347.5,45.3333 355.5,37C 361.119,33.9194 366.786,33.7527 372.5,36.5C 372.821,38.0481 373.821,38.7148 375.5,38.5C 375.5,29.8333 375.5,21.1667 375.5,12.5 Z M 362.5,40.5 C 371.658,39.4906 375.492,43.4906 374,52.5C 368.667,60.5 363.333,60.5 358,52.5C 356.478,47.2412 357.978,43.2412 362.5,40.5 Z"/></g>
<g><path style="opacity:1" fill="#ffe3bb" d="M 260.5,15.5 C 259.504,31.3246 259.17,47.3246 259.5,63.5C 258.173,47.3285 258.173,30.9951 259.5,14.5C 260.107,14.6236 260.44,14.9569 260.5,15.5 Z"/></g>
<g><path style="opacity:1" fill="#feb951" d="M 306.5,63.5 C 306.83,47.6578 306.496,31.9911 305.5,16.5C 305.369,15.6236 305.702,14.9569 306.5,14.5C 307.827,30.9951 307.827,47.3285 306.5,63.5 Z"/></g>
<g><path style="opacity:1" fill="#fea427" d="M 8.5,15.5 C 19.1667,15.5 29.8333,15.5 40.5,15.5C 40.5,17.8333 40.5,20.1667 40.5,22.5C 36.5,22.5 32.5,22.5 28.5,22.5C 28.5,36.1667 28.5,49.8333 28.5,63.5C 25.8333,63.5 23.1667,63.5 20.5,63.5C 20.5,49.8333 20.5,36.1667 20.5,22.5C 16.5,22.5 12.5,22.5 8.5,22.5C 8.5,20.1667 8.5,17.8333 8.5,15.5 Z"/></g>
<g><path style="opacity:1" fill="#feae38" d="M 80.5,22.5 C 80.5,20.5 80.5,18.5 80.5,16.5C 70.5,16.5 60.5,16.5 50.5,16.5C 50.5,32.1667 50.5,47.8333 50.5,63.5C 49.5036,47.6754 49.1703,31.6754 49.5,15.5C 60.1667,15.5 70.8333,15.5 81.5,15.5C 81.8016,18.0593 81.4682,20.3926 80.5,22.5 Z"/></g>
<g><path style="opacity:1" fill="#fea018" d="M 80.5,22.5 C 72.5,22.5 64.5,22.5 56.5,22.5C 56.5,26.8333 56.5,31.1667 56.5,35.5C 63.8333,35.5 71.1667,35.5 78.5,35.5C 78.5,37.8333 78.5,40.1667 78.5,42.5C 71.4921,42.3337 64.4921,42.5004 57.5,43C 56.5333,47.4014 56.2,51.9014 56.5,56.5C 64.6499,57.4927 72.9832,57.8261 81.5,57.5C 81.5,59.5 81.5,61.5 81.5,63.5C 71.1667,63.5 60.8333,63.5 50.5,63.5C 50.5,47.8333 50.5,32.1667 50.5,16.5C 60.5,16.5 70.5,16.5 80.5,16.5C 80.5,18.5 80.5,20.5 80.5,22.5 Z"/></g>
<g><path style="opacity:1" fill="#fea221" d="M 260.5,15.5 C 267.979,25.766 275.479,36.0994 283,46.5C 290.363,36.3163 297.863,26.3163 305.5,16.5C 306.496,31.9911 306.83,47.6578 306.5,63.5C 304.5,63.5 302.5,63.5 300.5,63.5C 300.666,53.8276 300.5,44.1609 300,34.5C 299.283,35.0442 298.783,35.7109 298.5,36.5C 293.589,43.9795 288.422,51.3128 283,58.5C 277.336,51.8264 272.169,44.8264 267.5,37.5C 267.631,36.6236 267.298,35.9569 266.5,35.5C 265.502,44.8096 265.168,54.1429 265.5,63.5C 263.5,63.5 261.5,63.5 259.5,63.5C 259.17,47.3246 259.504,31.3246 260.5,15.5 Z"/></g>
<g><path style="opacity:1" fill="#fea425" d="M 141.5,35.5 C 143.308,36.9179 143.975,38.9179 143.5,41.5C 138.772,41.7748 135.606,44.1082 134,48.5C 133.501,53.4889 133.334,58.4889 133.5,63.5C 131.167,63.5 128.833,63.5 126.5,63.5C 126.5,54.1667 126.5,44.8333 126.5,35.5C 131.118,34.3087 133.618,35.9754 134,40.5C 135.862,37.7923 138.362,36.1256 141.5,35.5 Z"/></g>
<g><path style="opacity:1" fill="#ffd69a" d="M 141.5,35.5 C 142.209,34.596 143.209,34.2627 144.5,34.5C 144.802,37.0593 144.468,39.3926 143.5,41.5C 143.975,38.9179 143.308,36.9179 141.5,35.5 Z"/></g>
<g><path style="opacity:1" fill="#ffa72e" d="M 158.5,34.5 C 173.828,33.6531 179.995,40.6531 177,55.5C 175.181,60.3357 171.681,63.169 166.5,64C 151.498,65.0021 145.331,58.1688 148,43.5C 150.489,39.1675 153.989,36.1675 158.5,34.5 Z M 160.5,40.5 C 168.982,40.7653 172.149,45.0987 170,53.5C 164.67,60.3107 159.67,59.9773 155,52.5C 153.873,47.0891 155.707,43.0891 160.5,40.5 Z"/></g>
<g><path style="opacity:1" fill="#ffa62d" d="M 216.5,48.5 C 215.781,50.7638 215.448,53.0971 215.5,55.5C 214.073,60.4051 210.739,63.2384 205.5,64C 201.027,64.9621 197.027,64.1287 193.5,61.5C 193.44,60.9569 193.107,60.6236 192.5,60.5C 191.505,65.7921 191.172,71.1254 191.5,76.5C 189.167,76.5 186.833,76.5 184.5,76.5C 184.5,62.8333 184.5,49.1667 184.5,35.5C 186.833,35.5 189.167,35.5 191.5,35.5C 191.281,36.675 191.614,37.675 192.5,38.5C 198.466,33.7972 204.8,33.2972 211.5,37C 214.949,40.0646 216.616,43.8979 216.5,48.5 Z M 198.5,40.5 C 206.472,40.6364 209.972,44.6364 209,52.5C 204.47,59.5883 199.137,60.255 193,54.5C 191.018,48.083 192.851,43.4163 198.5,40.5 Z"/></g>
<g><path style="opacity:1" fill="#ffa62d" d="M 232.5,34.5 C 241.978,33.2357 248.312,37.069 251.5,46C 251.095,46.9454 250.428,47.6121 249.5,48C 243.013,49.9399 236.679,52.2732 230.5,55C 232.233,56.9156 234.4,58.0823 237,58.5C 239.437,57.3458 241.937,56.8458 244.5,57C 247.319,61.2469 245.986,63.5802 240.5,64C 223.667,64.1629 218.167,56.3296 224,40.5C 226.637,38.109 229.47,36.109 232.5,34.5 Z M 233.5,40.5 C 236.32,40.2475 238.986,40.7475 241.5,42C 242.337,43.0113 242.67,44.1779 242.5,45.5C 237.903,47.0319 233.236,48.3652 228.5,49.5C 228.9,45.6909 230.567,42.6909 233.5,40.5 Z"/></g>
<g><path style="opacity:1" fill="#ffe3bc" d="M 300.5,63.5 C 299.833,54.5 299.167,45.5 298.5,36.5C 298.783,35.7109 299.283,35.0442 300,34.5C 300.5,44.1609 300.666,53.8276 300.5,63.5 Z"/></g>
<g><path style="opacity:1" fill="#ffa72f" d="M 327.5,34.5 C 337.531,33.1754 343.865,37.3421 346.5,47C 339.65,49.505 332.817,52.005 326,54.5C 325.312,55.3317 325.479,55.9984 326.5,56.5C 330.278,58.9421 334.111,58.9421 338,56.5C 343.022,60.5477 342.189,63.0477 335.5,64C 320.146,65.3169 313.979,58.4835 317,43.5C 319.489,39.1675 322.989,36.1675 327.5,34.5 Z M 324.5,49.5 C 323.596,48.791 323.263,47.791 323.5,46.5C 325.26,40.9751 328.927,39.1418 334.5,41C 335.687,42.0195 336.687,43.1861 337.5,44.5C 333.231,46.3669 328.898,48.0336 324.5,49.5 Z"/></g>
<g><path style="opacity:1" fill="#fea320" d="M 90.5,36.5 C 92.5,36.5 94.5,36.5 96.5,36.5C 96.1771,42.69 96.5104,48.69 97.5,54.5C 99.6527,59.0329 102.819,59.6995 107,56.5C 107.667,55.1667 108.333,53.8333 109,52.5C 109.499,46.8431 109.666,41.1764 109.5,35.5C 111.833,35.5 114.167,35.5 116.5,35.5C 116.5,44.8333 116.5,54.1667 116.5,63.5C 114.473,63.6621 112.473,63.4955 110.5,63C 109.874,62.2496 109.374,61.4162 109,60.5C 104.909,64.3049 100.076,65.4716 94.5,64C 93.3333,62.8333 92.1667,61.6667 91,60.5C 90.5003,52.5069 90.3336,44.5069 90.5,36.5 Z"/></g>
<g><path style="opacity:1" fill="#feba53" d="M 90.5,36.5 C 92.6074,35.5318 94.9407,35.1984 97.5,35.5C 97.5,41.8333 97.5,48.1667 97.5,54.5C 96.5104,48.69 96.1771,42.69 96.5,36.5C 94.5,36.5 92.5,36.5 90.5,36.5 Z"/></g>
<g><path style="opacity:1" fill="#fec877" d="M 267.5,37.5 C 266.833,46.1667 266.167,54.8333 265.5,63.5C 265.168,54.1429 265.502,44.8096 266.5,35.5C 267.298,35.9569 267.631,36.6236 267.5,37.5 Z"/></g>
<g><path style="opacity:1" fill="#fed496" d="M 323.5,46.5 C 323.263,47.791 323.596,48.791 324.5,49.5C 323.528,50.7514 322.861,50.418 322.5,48.5C 322.543,47.5836 322.876,46.9169 323.5,46.5 Z"/></g>
<g><path style="opacity:1" fill="#ffc26d" d="M 216.5,48.5 C 217.097,48.7352 217.43,49.2352 217.5,50C 217.046,52.0299 216.38,53.8632 215.5,55.5C 215.448,53.0971 215.781,50.7638 216.5,48.5 Z"/></g>
<g><path style="opacity:1" fill="#fec165" d="M 56.5,56.5 C 65.1667,56.5 73.8333,56.5 82.5,56.5C 82.8016,59.0593 82.4682,61.3926 81.5,63.5C 81.5,61.5 81.5,59.5 81.5,57.5C 72.9832,57.8261 64.6499,57.4927 56.5,56.5 Z"/></g>
<g><path style="opacity:1" fill="#ffd89f" d="M 193.5,61.5 C 192.833,66.5 192.167,71.5 191.5,76.5C 191.172,71.1254 191.505,65.7921 192.5,60.5C 193.107,60.6236 193.44,60.9569 193.5,61.5 Z"/></g>
</svg>
